# xmcd
#
# Track frame offsets: 
#        150
#        14926
#        30788
#        47887
#        59287
#        73462
#        90751
#        104550
#        116310
#        145784
#        158356
#        177068
#        185979
#        199178
#        212858
#        226432
#        234682
#        245612
#        270442
#        283116
#        295491
#        307351
#        323752
#        334401
#
# Disc length: 4707 seconds
#
# Revision: 0
# Processed by: cddbd v1.5.2PL0 Copyright (c) Steve Scherf et al.
# Submitted via: ExactAudioCopy v0.95b3
#
DISCID=72126118
DTITLE=Jimi Hendrix  - The Old Barclay Box - Volume 1  FLAC
DYEAR=1900
DGENRE=
TTITLE0=Foxy Lady
TTITLE1=Manic Depression
TTITLE2=Red House
TTITLE3=Can You See Me
TTITLE4=Love Or Confusion
TTITLE5=I Don't Live Today
TTITLE6=May This Be Love
TTITLE7=Fire
TTITLE8=Third Stone From The Sun
TTITLE9=Remember
TTITLE10=Are You Experienced?
TTITLE11=Exp
TTITLE12=Up From The Skies
TTITLE13=Spanish Castle Magic
TTITLE14=Wait Until Tomorrow
TTITLE15=Ain't No Telling
TTITLE16=Little Wing
TTITLE17=If 6 Was 9
TTITLE18=You Got Me Floatin'
TTITLE19=Castles Made Of Sand
TTITLE20=She's So Fine
TTITLE21=One Rainy Wish
TTITLE22=Little Miss Lover
TTITLE23=Bold As Love
EXTD=
EXTT0=
EXTT1=
EXTT2=
EXTT3=
EXTT4=
EXTT5=
EXTT6=
EXTT7=
EXTT8=
EXTT9=
EXTT10=
EXTT11=
EXTT12=
EXTT13=
EXTT14=
EXTT15=
EXTT16=
EXTT17=
EXTT18=
EXTT19=
EXTT20=
EXTT21=
EXTT22=
EXTT23=
PLAYORDER=
